<svg xmlns="http://www.w3.org/2000/svg" xmlns:xlink="http://www.w3.org/1999/xlink" viewBox="0 0 500 500" xmlns:v="https://vecta.io/nano"><style><![CDATA[.B{fill:#fff}.C{opacity:.1}.D{fill:#0098e6}.E{fill:#263238}.F{opacity:.2}.G{fill:#e4897b}.H{opacity:.6}.I{opacity:.7}.J{opacity:.4}]]></style><use xlink:href="#B" class="D"/><use xlink:href="#B" opacity=".9" class="B"/><ellipse cx="250" cy="416.24" rx="193.89" ry="11.32" fill="#f5f5f5"/><path d="M444.57 79.61v220.24l-26.5 26.5H264.66V79.61h179.91z" class="D"/><path d="M444.57 79.61v220.24l-26.5 26.5H264.66V79.61h179.91z" opacity=".8" class="B"/><path d="M418.07 326.35v-25.72h26.5l-25.98 25.98" class="F"/><path d="M332.74 101h-49.62a2.63 2.63 0 0 1-2.63-2.63h0a2.63 2.63 0 0 1 2.63-2.64h49.62a2.64 2.64 0 0 1 2.63 2.64h0a2.63 2.63 0 0 1-2.63 2.63zm90 21.34H303.12a2.63 2.63 0 0 1-2.63-2.64h0a2.63 2.63 0 0 1 2.63-2.63h119.62a2.63 2.63 0 0 1 2.63 2.63h0a2.64 2.64 0 0 1-2.63 2.64z" class="C"/><use xlink:href="#C" class="C"/><use xlink:href="#D" class="C"/><use xlink:href="#E" class="C"/><use xlink:href="#F" class="C"/><use xlink:href="#C" y="46.87" class="C"/><rect x="280.49" y="186.03" width="144.89" height="5.27" rx="2.63" class="C"/><use xlink:href="#E" y="46.86" class="C"/><use xlink:href="#F" y="46.87" class="C"/><use xlink:href="#C" y="93.74" class="C"/><use xlink:href="#D" y="93.74" class="C"/><path d="M342.74 249.88h-59.62a2.63 2.63 0 0 1-2.63-2.63h0a2.63 2.63 0 0 1 2.63-2.63h59.62a2.63 2.63 0 0 1 2.63 2.63h0a2.63 2.63 0 0 1-2.63 2.63z" class="C"/><g class="D"><path d="M412 133.58l-.19-.16c-.54-.41-.85-.27-1.1-1.06-.18-.57 0-1.21-.21-1.8a24.89 24.89 0 0 0-1.63-2.94l-2.46-4.43a4.25 4.25 0 0 0-5.77-1.64l-22.65 12.62c-.09.76-.72 1.28-.85 2a1.25 1.25 0 0 0 .38 1.18 1.17 1.17 0 0 1-.7-.25c-1.35-.75-1.71-1.35-3.1-.59l-1.78 1-6 3.35-18.8 10.47-22 12.28-18.33 10.21c-2.5 1.39-5.53 2.61-7.76 4.38.62.32.73.81.18 1.29l-1 .91c0 .25.36.25.59.15l1.24-.53a12.55 12.55 0 0 1-3.07 2.79 25 25 0 0 1-6.28 2.58l1.06-1.33c.08-.11.18-.25.11-.38s-.2-.14-.32-.15c-.53-.06-1.06 0-1.45-.39-3.42 2-7 3.9-10.48 5.84a4.25 4.25 0 0 0-1.64 5.77l22.84 41a4.23 4.23 0 0 0 5.76 1.64l6.01-3.39c0-.71.56-1.5.14-2.15a.57.57 0 0 1-.11-.27c0-.13.12-.23.23-.3a4.28 4.28 0 0 1 2.05-.66c.25 0 .58.11.54.35 0-.22 1.29-.68 1.5-.75.1.54-.27 1.12.36 1.23s1.59-1 2-1.2l6-3.35 19-10.57 20.84-11.61L379 197c.5-.29 1.09-.63 1.57-.87a4.64 4.64 0 0 1 1.28-2.42c1-.69 2.58.07 3.41-.91.16-.19.26-.42.4-.62a3.33 3.33 0 0 1 1-.79 1.57 1.57 0 0 1 .84-.33c.3 0 .62.25.58.55 2.06-.48 3.92-1.87 5.74-2.9.66-.37 6.45-3.09 6.43-3.52-.08-1.33.73-2.47.69-3.84 0-.26-.51-2-.28-2.13-5.2 3.1-10.6 5.92-15.9 8.86-.18.11-.86.34-1 .54 0 0-.05.09-.07.14l-.15.33v.08a18.83 18.83 0 0 1-.76 2c0 .09-1.13 1.49-1.22 1.16-.44-1.61-1-1.86-2.23-1.2l-1.76 1-5.59 3.11-18.83 10.5-22.19 12.36-18.49 10.3-7.75 4.31q-2.32-4.2-4.67-8.39l-3-5.39a6.11 6.11 0 0 0-1.32-2c-.43-.32-1.16-.24-1.54-.53-.93-.71-1.6-2-2.48-2.83-.6-.56-1.51-2.24-1.26-3.17.3.12.6.25.9.34a3.12 3.12 0 0 1 .1-1.86c-3-5.05-5.76-10.33-8.63-15.49l-.19-.33 7-3.9 5.11-2.85a17.7 17.7 0 0 0 3-1.65c.65-.56 1.31-1.26 2-1.86a7.28 7.28 0 0 1 1.5-.88l1.89-.92a.71.71 0 0 1 .32-.1 1.32 1.32 0 0 1 .33.08c1 .21 3.48-1.64 4.38-2.14l5.82-3.24 17.56-9.79 21.88-12.18 21.9-12.21 17.62-9.81 9-5 .42-.23 9.73 17.47a6.18 6.18 0 0 0 2.75 2.72c.4.13.85.41.8.82s-.65.75-.51 1.17.91.26 1.09.64-.31 1-.25 1.52a6 6 0 0 0 .91 1.73l2.83 5.09 4.74 8.5-17.3 9.64a.85.85 0 0 1 .21.25l.09.23a7.37 7.37 0 0 1 1 .44.86.86 0 0 1 .44.78.88.88 0 0 1-.46.76l-1.06.6a1.16 1.16 0 0 1-.91.95 2.22 2.22 0 0 1-.37 0 .9.9 0 0 1-.74.15.92.92 0 0 1-.62-1.11 1.35 1.35 0 0 1 .16-.29.9.9 0 0 1 .06-.93h-.32c-.18 0-.34-.1-.51-.15a5 5 0 0 0-2 2.36.27.27 0 0 0-.06.19c0 .14.22.15.35.21.3.14.23.58.08.87s-.33.66-.13.92a1.88 1.88 0 0 0 .25.24c.43.49-.23 1.91.82 1.33a1.25 1.25 0 0 1 .13-.91 1.34 1.34 0 0 1 .77-.57 12.54 12.54 0 0 1 2.37-.34L427.55 170a4.25 4.25 0 0 0 1.64-5.77l-.12-.21-9.42-16.91-5.44-9.78c-.53-.93-1-1.9-1.58-2.82a3.56 3.56 0 0 0-.63-.93zm-96.34 55.25c-.69-.84-.48-.86-.61-1.76v-.06l-.08-.09-.12-.14-1.41.7-9.21 5.13 3.71 6.65c-.52-.92 1.32-.65 1.39-.66a2.51 2.51 0 0 1 .6-.1.79.79 0 0 1 .49.33 3.05 3.05 0 0 1 .32 2.22c-.11 1 .42 2-.15 3 .49.8 4.92 8.86 4.94 8.85l9.21-5.13c.53-.3 1.79-.83 2.1-1.36s-.18-1.36.37-1.61a1.48 1.48 0 0 1 1.27.12 11.14 11.14 0 0 0 1.79-13.52c-2.59-4.65-8.47-7.42-13.62-5.26-.36.15.12 1.76-.74 1.94a2.37 2.37 0 0 1 .69-.82m5.74 16.74l-4.29 2.39-1.05-1.87c.45.76-.79.52-1.05.35-.63-.42-.8-1.63-.82-2.31a6.14 6.14 0 0 0-1-3.28q-1.51-2.73-3-5.46l4.29-2.39c4-2.24 8-1.31 10.16 2.57s.79 7.79-3.24 10zm23.77-32.2a2.48 2.48 0 0 1 .18 1.52c-.05.28-.5 1-.44 1.18l.47 1.2a.67.67 0 0 0 .11.18.47.47 0 0 0 .26.08c1.59.14 1.52.3 1.62 1.64.09 1.15 1.08 1.81 1.64 2.81a7.33 7.33 0 0 1-9 10.48 1.06 1.06 0 0 1-.12.1 1 1 0 0 1-.68.08 3 3 0 0 1-2.11-2.23.65.65 0 0 1 0-.24 7.54 7.54 0 0 1-.75-1.12 7.07 7.07 0 0 1 2.73-10 7.29 7.29 0 0 1 4.12-.94l-.08-.12c-.86-1.14 2.24-1.6.84-2.37-.59-.32-.49-1.77-.64-2.36a13.71 13.71 0 0 0-6.47 1.79c-6.4 3.57-8.61 10.64-5.25 16.67a11.76 11.76 0 0 0 6.55 5.51 5.84 5.84 0 0 0 2.08.48c.82-.07.42 0 .77-.49s.14-.7.67-1.22 1.15-.83 1.26-1.63c0 .36.4.62.4 1v.32a.68.68 0 0 0 .17.35c.34.46.91 1 .92 1.53a11.83 11.83 0 0 0 4.14-1.52c6.37-3.55 8.63-10.61 5.25-16.66-1.75-3.09-5.04-5.82-8.64-6.02zm20.45-13.92l6.86 12.31-16.94-6.7-3.88 2.17c2.62 4.7 5.4 9.35 7.86 14.14.17-.52.57-.62 1.05-.69.9-.12.87.33 1.36 1.22.06.11.13.22.24.24s.33-.16.51-.14.25.24.2.41a2.12 2.12 0 0 1-.25.47c-.29.55.19.9.13 1.4 0 .26-.87 1.32-.77 1.5l1 1.72 4.64-2.58-1.24-2.22h-.23c-1.35.18-.75-1.59-1.05-2.32a26.84 26.84 0 0 0-1.65-3l-2.73-4.81 13.77 5.42a2.84 2.84 0 0 1 .14-1.17c.11-.21 1-.6 1-.8a2.48 2.48 0 0 0 .84 1.67c.53.47.53.4.43 1.23l.82.33 3.86-2.15-11.3-20.27zm23.31 8.65l-2.62-4.69 9.42-5.25-2-3.65-9.41 5.25-2.45-4.41 6.36-3.54a3 3 0 0 1 1-.83.9.9 0 0 1 .64-.07l2.69-1.49-2.09-3.77c-.92.42 0 1.58-.93 2.14.19.2.47.91 0 1-.27 0-.47-.34-.74-.31s-.28.16-.42.12a.29.29 0 0 1-.19-.17 4.18 4.18 0 0 0-.49-.85c-.63-.61-6.38 3.22-7.18 3.67l-5.35 3 11.29 20.27 4.51-2.51.09-.12 1-1.24a.91.91 0 0 1 1.08-.13.68.68 0 0 1 .21.17l8.81-4.91-2.1-3.77z"/><use xlink:href="#G"/></g><use xlink:href="#G" class="F"/><path d="M396.7,388.1s6.41-14.45-1.27-28.48-9.91-17.33-5.15-20.3,7.12,11.21,7.12,11.21,3.92-9.83.47-20-5.75-26.82-1.22-28.67,1.12,20.78,5.16,28.41a66,66,0,0,0,3.66-16.84c.45-8.23-.56-21.34,3-24.76s5.89-1.12,2.57,17.07a190.36,190.36,0,0,0-3.11,32.93s7.52-23.91,12.75-24.68,5.31,6.93.91,13.68-12.9,18.85-14.25,25c0,0,8.35-18,16.12-12.65s-6.51,16.4-12.88,20.4S400,389,400,389Z" class="D"/><path d="M426.24 377.8h-52.9l4.28 37.86h44.34l4.28-37.86z" class="E"/><use xlink:href="#H" class="D"/><use xlink:href="#H" class="B H"/><circle cx="138.18" cy="161.79" r="15.85" class="D"/><circle cx="138.18" cy="161.79" r="13.59" transform="matrix(.22971 -.973259 .973259 .22971 -51.03 259.1)" class="F"/><path d="M136.49,168.28a1.4,1.4,0,0,1-1-.39l-5.77-5.65a1.39,1.39,0,0,1,1.94-2l4.73,4.63,8.18-9.13a1.39,1.39,0,0,1,2.07,1.85l-9.15,10.21a1.38,1.38,0,0,1-1,.46Z" class="B"/><use xlink:href="#I" class="E"/><use xlink:href="#I" class="B C"/><g class="E"><circle cx="164.07" cy="408.19" r="7.47"/><circle cx="90.89" cy="408.19" r="7.47"/><use xlink:href="#J"/></g><use xlink:href="#J" class="B F"/><path d="M87.54,267.62S96.1,321,113,330.23H95.82s-17-18.2-22.12-62.61Z" class="E"/><path d="M87.54,267.62S96.1,321,113,330.23H95.82s-17-18.2-22.12-62.61Z" class="B C"/><path d="M95 322.68h66.92a5 5 0 0 1 5 5v6.69a0 0 0 0 1 0 0H90a0 0 0 0 1 0 0v-6.69a5 5 0 0 1 5-5z" class="D"/><rect x="86.76" y="328.52" width="83.33" height="5.84" rx="2.01" class="E"/><rect x="86.76" y="328.52" width="83.33" height="5.84" rx="2.01" class="B H"/><path d="M71.67 278.48h27.49c8.06 0 13.29-6.46 11.69-14.43l-2.14-10.64c-1.6-8-9.43-14.42-17.48-14.42H63.74c-8.06 0-13.29 6.46-11.69 14.42l2.14 10.64c1.6 7.95 9.42 14.43 17.48 14.43z" class="D"/><path d="M217.54 367.89l-6.3 2.47-4.53-8.54-4.12-7.77 6.98-4.18 4.22 9.53 3.75 8.49z" class="G"/><path d="M213.79 359.4l-7.08 2.42-4.12-7.77 6.98-4.18 4.22 9.53z" class="F"/><use xlink:href="#K" class="E"/><use xlink:href="#K" opacity=".3" class="B"/><path d="M165.92 401.18l-6.72-.77-.04-9.48-.01-8.7 8.13-.38-.72 10.23-.64 9.1z" class="G"/><path d="M166.54 392.29l-7.4-1.18v-8.79l8.13-.43-.73 10.4z" class="F"/><path d="M199.72 356.51l12.54-6.28 1.31 5.32-9.5 4.9-4.35-3.94z" class="D"/><use xlink:href="#L" class="E"/><use xlink:href="#L" class="B J"/><use xlink:href="#L" opacity=".3"/><path d="M156.34 384.35l13.31-.31-1.82 5.48-10.8.1-.69-5.27z" class="D"/><path d="M135.8 285.53l-17.27 6.15s9.08-6.78 16.16-9.93l1.11 3.78z" opacity=".3"/><path d="M97.51 275.67l.64 4.79 32.37-6.87-.75-5.66-32.26 7.74z" class="E"/><path d="M97.51 275.67l.64 4.79 32.37-6.87-.75-5.66-32.26 7.74z" class="F"/><path d="M106.623 272.489l1.612-.299 1.523 8.21-1.612.299z" class="E"/><path d="M115.288 271.704l7.063-1.592 1.207 5.356-7.063 1.592z" class="B"/><path d="M125.285 267.063l1.607-.295 1.503 8.183-1.607.295z" class="E"/><path d="M106.623 272.489l1.612-.299 1.523 8.21-1.612.299zm18.662-5.426l1.607-.295 1.503 8.183-1.607.295z" opacity=".3" class="B"/><path d="M230.06 379.07a8.92 8.92 0 0 0-3.25-.37h0s-4.07-1.7-9-9.79l-4.2.55a3.49 3.49 0 0 0-2.9 2.75 2 2 0 0 0 0 .6 23.58 23.58 0 0 0 .74 3 85 85 0 0 0 3.81 9.53l.68-.28-2.17-6.06c-.72-2.07 1.79-.32 3.12 1.68s3.22 3.94 7.71 2.24c5.22-2.04 7.29-3.12 5.46-3.85z" class="E"/><path d="M216.76 366.76s6.74 10.24 10.05 11.94c0 0-3.71 3-8.66-1.82-6.39-6.19-7.46-4.07-7.46-4.07a19.41 19.41 0 0 1 .17-3.63c.51-2.35 5.9-2.42 5.9-2.42z" class="G"/><path d="M176 413.1a9.09 9.09 0 0 0-3.1-1.1h0s-3.55-2.61-6.4-11.63l-4.21-.46a3.46 3.46 0 0 0-3.47 2 1.9 1.9 0 0 0-.18.57 22.47 22.47 0 0 0 0 3.07 83.52 83.52 0 0 0 1.44 10.16l.73-.11-.65-6.42c-.21-2.18 1.82.12 2.64 2.38s2.19 4.59 6.95 4c5.56-.75 7.82-1.31 6.25-2.46z" class="E"/><path d="M166 398s4.12 11.55 6.93 14c0 0-4.31 2-8-3.82-4.75-7.53-6.28-5.72-6.28-5.72a19.32 19.32 0 0 1 1-3.48c1.06-2.2 6.35-.98 6.35-.98zM90.46 194L82 195.7a2.8 2.8 0 0 1-2.42.59c-2.52-1-6.15-3.93-6.61-5-.68-1.51 0-5.94 1.78-6.74s7.91 6.6 7.91 6.6l9.09-2.05z" class="G"/><use xlink:href="#M" class="D"/><use xlink:href="#M" class="B H"/><path d="M86.61 196.24l-1.66-6.88 2.38-.86 1.51 7.95-2.23-.21z" class="D"/><path d="M86.61 196.24l-1.66-6.88 2.38-.86 1.51 7.95-2.23-.21z" class="B I"/><use xlink:href="#N" class="D"/><use xlink:href="#N" class="B I"/><rect x="120.34" y="242.35" width="5.52" height="9.02" rx=".79" transform="matrix(-.953664 .300872 -.300872 -.953664 314.77 445.26)" class="D H"/><path d="M126.086 248.259l-4.272 1.348-1.844-5.846 4.272-1.348z" class="F"/><path d="M120.726 240.597l.944-.298 1.086 3.443-.944.298zM95.18 187.55c-7.91 0-13.13 8.38-11.28 21.67s9.26 17.12 9.26 17.12l-.47-3.21a75.4 75.4 0 0 0 25.09 1.4s-3.82-10.84-2.58-21.91c0 0 2.51-15.09-20.02-15.07z" class="E"/><path d="M110.89 227l3.23 12-5.68-4.33s5.53 12.64 7 20c0 0-4.78-12.53-8.9-19.4l-2.41 6.88-9.69-9.87s8.56-6.56 16.45-5.28z" class="F"/><path d="M106.17,230.87l-9.86.3c4.37-5.59-3.53-15.33-3.53-15.33l9.74,2.11c2.32,9.64,6.33,9.93,6.33,9.93Z" class="G"/><path d="M105.24 224.87a14.78 14.78 0 0 1-9.78-4.87 29.72 29.72 0 0 0-2.68-4.12l9.74 2.12a22.16 22.16 0 0 0 2.72 6.87z" class="F"/><path d="M102.51 191.62c8.49.71 10.85 5.48 10.74 14.29-.13 11-3.21 18.57-13.63 15.35-14.16-4.37-11.22-30.82 2.89-29.64z" class="G"/><path d="M107.8,205a18.07,18.07,0,0,0,2.18,3.73,2.36,2.36,0,0,1-2.32.77Z" fill="#de5753"/><g class="E"><path d="M102.05 203.58l1.84-.6s-.98 1.46-1.84.6z"/><path d="M102.69 203.37a1.57 1.57 0 0 0-2 .54 2.41 2.41 0 0 1 2 0zm-3.42-4.05a.36.36 0 0 1-.25-.11.35.35 0 0 1 0-.51 4.78 4.78 0 0 1 4.13-1.08.363.363 0 1 1-.15.71 4.12 4.12 0 0 0-3.46.87.35.35 0 0 1-.27.12zm13.32.15a.34.34 0 0 1-.22-.07 3.65 3.65 0 0 0-3-.92.363.363 0 0 1-.19-.7 4.32 4.32 0 0 1 3.65 1.05.37.37 0 0 1 .06.51.36.36 0 0 1-.3.13z"/><path d="M92 205.16s4.55-6.64 4.4-12.08c0 0 17.41-5.48 16.82 11.68 0 0 2.9-15-11.67-16.59S85.29 208 92.3 215c0 0-3.09-5.68-.3-9.84z"/></g><path d="M93.27 207.07a3.74 3.74 0 0 0-3.73-3.74c-2.66.07-4.36 5.37 2.08 7.22.92.26 1.53-.61 1.65-3.48z" class="G"/><path d="M107.73 212a20.59 20.59 0 0 0-1.67 2.64l-.52-.18c-2.35-.83-3.17-2-3.36-3a3.12 3.12 0 0 1 .11-1.52 3.25 3.25 0 0 1 .36-.8 11.58 11.58 0 0 0 4.28 2.58l.8.28z" class="E"/><path d="M106.93 211.7l-.51.77c-2.22-.79-3.67-1.64-4.13-2.55a3.25 3.25 0 0 1 .36-.8 11.58 11.58 0 0 0 4.28 2.58z" class="B"/><path d="M105.54 214.46c-2.35-.83-3.17-2-3.36-3a7.92 7.92 0 0 1 2.43 1.43 3 3 0 0 1 .93 1.57z" fill="#de5753"/><g class="E"><path d="M102.28 192.25S97.69 205.94 88.91 205s6.27-17.48 6.27-17.48 14.81-4.23 21.26 4-3.19 13.22-3.19 13.22 1.44-10.74-10.97-12.49z"/><path d="M95.28 203.9a.28.28 0 0 1-.24-.16.26.26 0 0 1 .15-.33c7-2.67 6.84-12.06 6.84-12.16a.23.23 0 0 1 .24-.25.27.27 0 0 1 .26.24c0 .1.16 9.84-7.16 12.64zm15.39.51l1.84-.59s-.99 1.45-1.84.59z"/><path d="M111.31,204.2a1.56,1.56,0,0,0-2,.55,2.39,2.39,0,0,1,2-.06Z"/></g><path d="M97.7 227.13l7.43 3.78-.12 7.53-10.62-6.19 3.31-5.12zm8.56-1.42l.44 4.57 4.85 5.13-.66-8.44-4.63-1.26z" class="D"/><path d="M71.93,174l-3.1-8a2.78,2.78,0,0,0-.81-2.35c-2.16-1.61-6.62-3.07-7.74-2.9-1.63.24-5,3.19-4.71,5.12s9.81,3.12,9.81,3.12l3.16,8.77Z" class="G"/><use xlink:href="#O" class="D"/><use xlink:href="#O" class="B H"/><path d="M64.99 172.6l6.33-3.17 1.38 2.11-7.4 3.28-.31-2.22z" class="D"/><g class="B"><path d="M64.99 172.6l6.33-3.17 1.38 2.11-7.4 3.28-.31-2.22z" class="I"/><path d="M97.7 227.13l7.43 3.78-.12 7.53-10.62-6.19 3.31-5.12zm8.56-1.42l.44 4.57 4.85 5.13-.66-8.44-4.63-1.26z" class="H"/><path d="M287.3 211.41h29.96v23.28H287.3z"/></g><path d="M309.58 211.41h7.68v23.28h-7.68z" class="C"/><path d="M285.58 255.25h33.87V213h-10.91l-22.96 10.99v31.26z" class="D"/><path d="M308.54 213h10.91v42.25h-10.91z" class="F"/><g class="B"><path d="M289.07 232.32h15.86v7.6h-15.86zm0 10.14h15.86v1.09h-15.86zm20.51 3.19h8.81v6.45h-8.81z" class="I"/><path d="M274.57 210.14h29.96v24.55h-29.96z"/></g><path d="M296.85 210.14h7.68v24.55h-7.68z" class="C"/><path d="M272.85 255.25h33.87V213h-10.91l-22.96 10.99v31.26z" class="D"/><path d="M295.81 213h10.91v42.25h-10.91z" class="F"/><g class="B"><path d="M276.34 232.32h15.86v7.6h-15.86zm0 10.14h15.86v1.09h-15.86zm20.51 3.19h8.81v6.45h-8.81z" class="I"/></g><path d="M251.81 415.66h6.13l11-153.25h-8.13l-9 153.25z" class="E"/><path d="M251.81 415.66h6.13l10.46-145.64.54-7.36h-8.13l-.43 7.36-8.57 145.64z" class="B C"/><path d="M260.38 269.66h8.02l.54-7h-8.13l-.43 7z" class="F"/><path d="M206.85 415.66h6.13l1-153.25h-8.13l1 153.25z" class="E"/><path d="M205.84 262.66l.17 24.72.83 128.28h6.13l.84-128.28.16-24.72h-8.13z" class="B C"/><path d="M205.84 262.66l.17 25h7.8l.16-25h-8.13z" class="F"/><path d="M141.81 415.66h6.13l11-153.25h-8.13l-9 153.25z" class="E"/><path d="M141.81 415.66h6.13l10.47-145.64.53-7.36h-8.13l-.43 7.36-8.57 145.64z" class="B C"/><path d="M150.38 269.66h8.03l.53-7h-8.13l-.43 7z" class="F"/><path d="M321.89 415.66h6.13l-9.01-153.25h-8.13l11.01 153.25z" class="E"/><path d="M310.88 262.66l.55 7.36 10.46 145.64h6.12l-8.56-145.64-.44-7.36h-8.13z" class="B C"/><path d="M319.01 262.66h-8.13l.55 7h8.02l-.44-7z" class="F"/><use xlink:href="#P" class="D"/><use xlink:href="#P" class="B J"/><path d="M325.46 262.41H144.38v-3.84h181.08z" class="F"/><use xlink:href="#Q" class="D"/><use xlink:href="#Q" class="B J"/><use xlink:href="#R" class="D"/><use xlink:href="#R" class="B I"/><path d="M288.71 255.23v-3.38h2.27l-2.27-1.32h1.7l-2.27-1.48h-2.15v-1.7h2.5l-2.5-.99v-3.69h2.5v-2.41h2.49l-2.49-.84v-1.72h1.78l-1.46-1.45-1.26-1.27H267.2v1.73h-2.55l2.83 1.28v1.43h-5.21v2.66h-2.31l2.31 1.16v2.97h1.64v1.42h3.29v4.22h-1.84l1.5 1.51v1.89l21.85-.02z" class="C"/><path d="M249.2 239.42h18.28l-18.28-.66v.66zm-.29 8.21h18.29l.08 1.28-18.37-1.28zm-3.28-1.42h18.28l-18.28.64v-.64zm3.28 5.64h18.29l-18.29-.67v.67zm-.33 1.51h18.28v.7l-18.28-.7zm-4.59-11.28h18.28l-18.28-.58v.58zm4.92-5.37h18.29l-18.29-.64v.64zm39.58.99h-18.55l18.55.57v-.57z" class="C"/><path d="M267.48 239.42h21.01l-19.05.62-1.96-.62zm-5.21 2.66l26.22.59v-.59h-26.22zm0 1.16h12.97l-12.97.63v-.63zm23.72 3.12l-18.79-.15 18.79-.42v.57zm0 .99h-19.13l19.13.64v-.64zm2.72 3.18h-21.23v.65l21.23-.65zm0 1.32h-15.38l15.38.43v-.43z" class="C"/><path d="M239.51,250.87v3.21c0,.82-1,1.16-1.79,1.16H173.6c-.82,0-1.81-.34-1.81-1.16v-3.21Z" class="E"/><path d="M239.51,250.87v3.21c0,.82-1,1.16-1.79,1.16H173.6c-.82,0-1.81-.34-1.81-1.16v-3.21Z" class="B J"/><path d="M239.51,250.87v3.21c0,.82-1,1.16-1.79,1.16H195.43c-.82,0-1.8-.34-1.8-1.16v-3.21Z" class="F"/><path d="M250.24 217.55l-7.64 34.63a2.59 2.59 0 0 1-2.48 2h-41.69a1.68 1.68 0 0 1-1.57-2.17l7.62-34.36a2.39 2.39 0 0 1 2.48-1.7h41.7c1.12-.04 1.82.47 1.58 1.6z" class="E"/><path d="M250.24 217.55l-7.64 34.63a2.59 2.59 0 0 1-2.48 2h-40.28a1.68 1.68 0 0 1-1.57-2.17l7.63-34.36a2.38 2.38 0 0 1 2.48-1.7h40.28c1.12-.04 1.82.47 1.58 1.6z" class="B J"/><path d="M229.68,235.15h0c0,3-3.18,5.37-5.51,5.37s-3.71-2.41-3-5.37,3-5.27,5.26-5.36c-.66,3,.76,5.36,3.08,5.36Z" class="F"/><defs ><path id="B" d="M114.42 250.43c-2.35-29.83-60.21-78.76-39.85-103.6 25.3-30.86 121.48 12.95 164.51 4.52 46.14-9 126.41-93 167-73.47 48.18 23.24-17.62 135.67-10.87 182.55 3.79 26.35 50 84.76 29.13 105-33.1 32-134.76-20.1-184.42-16.55-38.57 2.76-128.05 53.3-154.76 30.12-27.64-24 31.91-94.84 29.26-128.57z"/><path id="C" d="M422.74 132.71H283.12a2.63 2.63 0 0 1-2.63-2.63h0a2.63 2.63 0 0 1 2.63-2.64h139.62a2.64 2.64 0 0 1 2.63 2.64h0a2.63 2.63 0 0 1-2.63 2.63z"/><path id="D" d="M422.74 144.43H283.12a2.63 2.63 0 0 1-2.63-2.64h0a2.63 2.63 0 0 1 2.63-2.63h139.62a2.63 2.63 0 0 1 2.63 2.63h0a2.64 2.64 0 0 1-2.63 2.64z"/><path id="E" d="M422.74 156.14H283.12a2.63 2.63 0 0 1-2.63-2.63h0a2.63 2.63 0 0 1 2.63-2.63h139.62a2.63 2.63 0 0 1 2.63 2.63h0a2.63 2.63 0 0 1-2.63 2.63z"/><path id="F" d="M422.74 167.86H283.12a2.63 2.63 0 0 1-2.63-2.63h0a2.62 2.62 0 0 1 2.63-2.63h139.62a2.63 2.63 0 0 1 2.63 2.63h0a2.63 2.63 0 0 1-2.63 2.63z"/><path id="G" d="M401.9 382.21s-6.58-14.34.93-28.49 9.7-17.48 4.91-20.37-7 11.31-7 11.31-4-9.78-.71-20 5.43-26.9.88-28.69-.87 20.79-4.82 28.49a66.37 66.37 0 0 1-3.87-16.79c-.54-8.22.31-21.34-3.29-24.71s-5.89-1-2.36 17.1a190.39 190.39 0 0 1 3.51 32.89s-7.81-23.8-13-24.49-5.23 7-.74 13.69 13.09 18.65 14.5 24.85c0 0-8.56-17.9-16.27-12.42s6.71 16.31 13.13 20.22 10.89 28.4 10.89 28.4z"/><path id="H" d="M155.63 139.75h-34.91a5.07 5.07 0 0 0-5.07 5.07v33.94a5.07 5.07 0 0 0 5.07 5.07h11.17l-7.52 10.22 13-10.22h18.25a5.07 5.07 0 0 0 5.07-5.07v-33.94a5.07 5.07 0 0 0-5.06-5.07z"/><path id="I" d="M92.9 392.92l28.81-2.84v-32.49h11.42v32.48l28.93 2.85a5.6 5.6 0 0 1 5.06 5.58v4.33H87.84v-4.33a5.6 5.6 0 0 1 5.06-5.58z"/><path id="J" d="M130.96 366.29h-7.12a4.13 4.13 0 0 1-4.13-4.13v-31.94h0 15.38 0v31.94a4.13 4.13 0 0 1-4.13 4.13z"/><path id="K" d="M212.48 354.74l-8.57 4.6s-32.39-56.95-37.37-56.47-52.23 30.58-66.64 19.46-.39-44.6-.39-44.6 29.81-8.52 33-2a49.75 49.75 0 0 1 2.14 6l1.11 3.78h0c.91-.37 30.35-12.44 43.49-6 13.41 6.62 33.23 75.23 33.23 75.23z"/><path id="L" d="M122.16 322.42s2.06-.23 33.75-6.1l2.22 70.73 9.76.31s14-67 12.35-77.16-13.69-11.49-13.69-11.49-20.91 16.29-44.39 23.71z"/><path id="M" d="M117.14,222.12s-.77-27.41-3.94-28.58-27,2.1-27,2.1l-.58-6.26s27.73-4.27,33.1-1.74,7.14,43.38,6.16,51.25Z"/><path id="N" d="M117,218.7s-2.13,8.34-12.39,11S83,225.41,83,225.41l2.26,19.9,12.56,31.35,32.1-8.37S128,231.82,117,218.7Z"/><path id="O" d="M85.28 245.31s6-4.77 3.61-15.31l-6.45-29.16-11.08-30.12-5.42 2.74 9.94 31.42c.43 1 2.14 16.27 4.47 26.5 2.14 9.42 4.93 13.93 4.93 13.93z"/><path id="P" d="M323.3 266.25H146.54a2.16 2.16 0 0 1-2.16-2.16v-5.51h0 181.08 0v5.51a2.16 2.16 0 0 1-2.16 2.16z"/><path id="Q" d="M140.58 259.57h188.67a2.15 2.15 0 0 0 2.16-2.16h0a2.16 2.16 0 0 0-2.16-2.16H140.58a2.17 2.17 0 0 0-2.17 2.16h0a2.16 2.16 0 0 0 2.17 2.16z"/><path id="R" d="M288.71 255.23v-3.38h2.27l-2.27-1.32h1.7l-2.27-1.48h-2.15v-1.7h2.5l-2.5-.99v-3.69h2.5v-2.41h2.49l-2.49-.84v-1.72h1.78l-1.46-1.45-1.26-1.27h-38.64v1.73h-2.55l2.84 1.28v1.43h-5.21v2.66h-2.31l2.31 1.16v2.97h1.64v1.42h3.28v4.22h-1.84l1.51 1.51v1.89l40.13-.02z"/></defs></svg>