<svg xmlns="http://www.w3.org/2000/svg" xmlns:xlink="http://www.w3.org/1999/xlink" viewBox="0 0 500 500" xmlns:v="https://vecta.io/nano"><style><![CDATA[.B{fill:#263238}.C{fill:#fff}.D{fill:#0098e6}.E{fill:#455a64}]]></style><path d="M400.77 160.73C424.7 211.64 418 274.46 386.49 321s-84 76.74-139.16 87.72c-39.33 7.86-81.74 6.28-117.72-11.55s-64.27-53.67-66.43-93.76c-.81-15.14 2.4-31.22 12.51-42.53 16.13-18.06 43.68-18.69 67.88-17.95s51.74.18 68-17.8c12.46-13.82 14.29-33.86 20.86-51.27 11.16-29.6 38.1-52.72 69.05-59.26a95.44 95.44 0 0 1 51.85 3.87 86.37 86.37 0 0 1 46.38 40.09l1.06 2.17z" fill="#f5f5f5"/><path d="M465.17 441.41c0 .15-96.34.26-215.16.26s-215.18-.11-215.18-.26 96.32-.26 215.18-.26l215.16.26z" class="B"/><g class="D"><path d="M68,317.25c-5.29.85-7.66,7.35-7.2,12.69s2.66,10.56,2.07,15.89c-.74,6.76-5.86,12.48-6.45,19.26-.7,8,5,15.09,6.64,22.94.82,3.82.71,7.85,2.13,11.49a14.37,14.37,0,0,0,27.75-4.95c.11-6.14-3.67-11.93-3.21-18.05.34-4.53,3-8.82,2.42-13.32-.68-5.36-5.64-9.16-7.39-14.27s-.07-10.74-.68-16.11C83,323.19,77.63,316.47,68,317.25"/><use xlink:href="#B"/></g><g opacity=".1"><use xlink:href="#B"/></g><path d="M79.82 427a2.18 2.18 0 0 1-.26-.49l-.63-1.46-2.36-5.37c-2-4.5-5.06-10.63-8.86-17.15a192.51 192.51 0 0 0-10.6-16.14l-3.51-4.68-1-1.28c-.22-.29-.33-.45-.31-.46a3.34 3.34 0 0 1 .39.4l1 1.21c.9 1.06 2.15 2.63 3.65 4.6a164.22 164.22 0 0 1 10.75 16.1 163.84 163.84 0 0 1 8.75 17.26 96.87 96.87 0 0 1 2.21 5.43l.55 1.5a3 3 0 0 1 .23.53zm-5.75-85.07a5.49 5.49 0 0 1 .1.86q.06.91.18 2.46l.58 9 2 29.83 2.22 29.81.69 9 .17 2.45a5.06 5.06 0 0 1 0 .86 5.33 5.33 0 0 1-.13-.85l-.26-2.45-.85-9-2.37-29.81-1.83-29.78-.42-9.05-.08-2.46a6.39 6.39 0 0 1 0-.87z" class="B"/><path d="M65.86,414.28H88.21v16.41a10.72,10.72,0,0,1-10.72,10.72h0a10.73,10.73,0,0,1-10.72-10.15Z" class="E"/><path d="M356.92 279.29a6.43 6.43 0 0 0-4.32-1.24v-1.35H329s-.74 15.57 11.18 16.12c5.34.25 8.39-2.14 10.14-5.15a12.26 12.26 0 0 0 2.68.33 6.13 6.13 0 0 0 3.71-1.05 4.67 4.67 0 0 0 1.78-4 4.55 4.55 0 0 0-1.57-3.66zm-1.62 5.79c-1 .75-2.81.64-4 .43a21.29 21.29 0 0 0 1.15-5.13 4.48 4.48 0 0 1 2.95.69 2.28 2.28 0 0 1 .72 1.88 2.45 2.45 0 0 1-.82 2.13z" class="D"/><path d="M345.67 275.28a1.19 1.19 0 0 0 .2-.59 1.83 1.83 0 0 0-1-1.42 5.51 5.51 0 0 0-1.25-.43 4 4 0 0 1-1.51-.68 2.25 2.25 0 0 1-.77-1.75 3.92 3.92 0 0 1 .59-2.06c.81-1.31 2.27-2.14 3.3-3.44a5.7 5.7 0 0 0 .85-5 5.56 5.56 0 0 0-1.39-2.43 9.59 9.59 0 0 0-2.52-1.6 7.18 7.18 0 0 1-2.67-1.91 3.89 3.89 0 0 1-.7-1.58 2.64 2.64 0 0 1 .23-1.78 2 2 0 0 1 .65-.7l.27.45a5 5 0 0 0-2.27 5.18A4.42 4.42 0 0 0 339 258a10.23 10.23 0 0 1 2.05 2.1 2.78 2.78 0 0 1 .34 1.46A3.21 3.21 0 0 1 341 263a5.57 5.57 0 0 1-1.82 1.94c-1.45.92-2.94 1.38-4.05 2.22a4.26 4.26 0 0 0-1.77 3.1 5.18 5.18 0 0 0 .47 2.73 5.38 5.38 0 0 0 1.53 1.83l-.15-.07a3.2 3.2 0 0 1-.39-.26 4.2 4.2 0 0 1-1.17-1.41 5.3 5.3 0 0 1-.57-2.85 4.67 4.67 0 0 1 .49-1.78 4.76 4.76 0 0 1 1.34-1.58c1.15-.9 2.68-1.4 4-2.28a5.32 5.32 0 0 0 1.66-1.8 2.42 2.42 0 0 0 0-2.4 10.51 10.51 0 0 0-2-2 4.8 4.8 0 0 1-1.45-2.75 5.52 5.52 0 0 1 2.52-5.72l.26.45a1.57 1.57 0 0 0-.48.51 2.81 2.81 0 0 0 .44 2.81 6.87 6.87 0 0 0 2.48 1.76 9.85 9.85 0 0 1 2.64 1.7 6 6 0 0 1 1.5 2.65 6.16 6.16 0 0 1-1 5.38c-1.13 1.37-2.57 2.17-3.32 3.36s-.82 2.69.05 3.4 2 .69 2.68 1.15a1.9 1.9 0 0 1 1 1.6.87.87 0 0 1-.17.47c0 .09-.04.12-.05.12z" class="B"/><rect x="80.26" y="151.82" width="121.53" height="34.07" rx="3.23" class="E"/><path d="M105.88 174.54a7.4 7.4 0 1 1-1.14-10.41 7.4 7.4 0 0 1 1.14 10.41z" class="C"/><path d="M104.27 167.39a33.61 33.61 0 0 1-4 4.27l-1 .94-.18.18-.18-.18a22.49 22.49 0 0 1-3-3.35 22.49 22.49 0 0 1 3.35 3h-.36l1-1a33.21 33.21 0 0 1 4.37-3.86z" class="D"/><path d="M189.94 166.36c0 .14-15.45.26-34.51.26s-34.5-.12-34.5-.26 15.44-.26 34.5-.26l34.51.26zm-28.31 6.74c0 .14-8.93.26-19.94.26s-20-.12-20-.26 8.93-.26 20-.26l19.94.26z" class="C"/><rect x="80.26" y="190.79" width="121.53" height="34.07" rx="3.23" class="E"/><path d="M105.88 213.51a7.4 7.4 0 1 1-1.14-10.41 7.41 7.41 0 0 1 1.14 10.41z" class="C"/><path d="M104.27 206.37a33.18 33.18 0 0 1-4 4.26l-1 1-.18.17-.18-.18a22.49 22.49 0 0 1-3-3.35 23 23 0 0 1 3.35 3h-.36l1-1a32.34 32.34 0 0 1 4.37-3.9z" class="D"/><path d="M189.94 205.33c0 .15-15.45.26-34.51.26s-34.5-.11-34.5-.26 15.44-.26 34.5-.26l34.51.26zm-28.31 6.74c0 .15-8.93.26-19.94.26s-20-.11-20-.26 8.93-.26 20-.26l19.94.26z" class="C"/><rect x="80.26" y="229.77" width="121.53" height="34.07" rx="3.23" class="E"/><path d="M105.88 252.49a7.4 7.4 0 1 1-1.14-10.41 7.4 7.4 0 0 1 1.14 10.41z" class="C"/><path d="M104.27 245.34a32.13 32.13 0 0 1-4 4.27l-1 .94-.18.18-.18-.18a22.49 22.49 0 0 1-3-3.35 22.49 22.49 0 0 1 3.35 3h-.36l1-1a33.21 33.21 0 0 1 4.37-3.86z" class="D"/><path d="M189.94 244.31c0 .14-15.45.26-34.51.26s-34.5-.12-34.5-.26 15.44-.26 34.5-.26l34.51.26zm-28.31 6.74c0 .14-8.93.26-19.94.26s-20-.12-20-.26 8.93-.26 20-.26l19.94.26z" class="C"/><g class="B"><path d="M270.67 358.78l-1.91 82.63h-3.64l.23-82.42 5.32-.21zm13.17-.92l17.72 83.55h4.06l-14.75-83.55h-7.03zm-33.22.92l-19.61 82.63h-4.06l17.79-82.97 5.88.34z"/><path d="M306.85 267.94s22.46-1.28 20.22 24.71S323.54 345 315.19 354s-92.43 9.31-99.49 1.93 13.48-7.06 17.33-7.06 27.6 2.24 35.3-18 5.78-64.21 38.52-62.93z"/></g><path d="M308.29 268s17.17 3.52 15.57 21.49-6.1 49.43-14.45 57.45-41 9.77-58.73 8.67c-20.54-1.29-33.5-5.2-33.5-5.2s-3.75 2.41-2.62 4 11.15 7.8 59.7 6.76 45.18-8.2 47.19-16 6.25-49.54 5.66-58.71-5.21-16.9-18.82-18.46z" class="E"/><path d="M260.05,191.73a13,13,0,0,1,15,5c2.17,3.36,2.68,7.58,4.89,10.91,1.57,2.35,3.89,4.08,5.81,6.16s3.49,4.83,3,7.62c-.46,2.61-2.67,4.93-2.23,7.55.42,2.45,3,4.05,3.55,6.49.59,2.87-2.17,5.55-5.07,6s-5.78-.67-8.51-1.75-5.63-2.16-8.52-1.64c-3.35.61-5.92,3.24-8.85,5a18.32,18.32,0,0,1-20-1.19c-2.2-1.69-4.13-4.31-3.59-7,.5-2.54,3-4.3,3.66-6.79,1.06-3.7-2-7.48-1.55-11.31.62-5.14,7-7.49,9.28-12.13,1.11-2.23,1.21-4.83,2.18-7.12s3.53-4.33,5.81-3.35" class="B"/><path d="M257.89,238.51c.33-1.83-.26-9.53-.26-9.53s-6.82-.86-7.12-7.83.4-23,.4-23l12.57-6,11,12.5.21,33.79Z" fill="#ffbe9d"/><path d="M251.8 210.44a.87.87 0 1 0 .89-.88.89.89 0 0 0-.89.88zm-.56-1.56c.11.12.77-.43 1.7-.47s1.63.44 1.73.31-.06-.27-.37-.49a2.24 2.24 0 0 0-2.73.13c-.29.24-.38.47-.33.52zm10.76 1.56a.87.87 0 1 0 1.73 0 .87.87 0 1 0-1.73 0zm-.4-1.38c.11.12.77-.43 1.7-.47s1.63.44 1.73.31-.06-.27-.37-.49a2.24 2.24 0 0 0-1.38-.4 2.3 2.3 0 0 0-1.35.52c-.28.25-.38.47-.33.53zm-3.51 8.04a5.55 5.55 0 0 0-1.52-.23c-.24 0-.47-.06-.51-.23a1.44 1.44 0 0 1 .15-.77l.67-2a37.26 37.26 0 0 0 1.51-5.16 35 35 0 0 0-1.89 5l-.65 2a1.61 1.61 0 0 0-.1 1 .57.57 0 0 0 .4.36 1.46 1.46 0 0 0 .4 0 5.37 5.37 0 0 0 1.54.03z" class="B"/><path d="M257.63 229a16.63 16.63 0 0 0 9-3s-2.12 5.08-8.92 4.67zm.8-9.44a1.84 1.84 0 0 1 1.08-1.34 1.46 1.46 0 0 1 1.21 0 1 1 0 0 1 .55 1 1.19 1.19 0 0 1-1 .9 3.45 3.45 0 0 1-1.39-.1 1 1 0 0 1-.36-.13.33.33 0 0 1-.15-.33" fill="#eb996e"/><g class="B"><path d="M260.75 217.07c.06 0 .17.25.14.7a2.49 2.49 0 0 1-.77 1.58 2.45 2.45 0 0 1-1.61.67c-.46 0-.72-.12-.7-.18s1.09-.06 1.95-.87.84-1.91.99-1.9zm-10.41-19.71a8.36 8.36 0 0 0 8.27 7.33l-1.89-4.16c1.68 1.95 3.42 4 5.73 5.12s5.32 1.3 7.28-.38c.64 1.71.63 3.6 1.22 5.32s2 8.84 3.76 8.56 2.83-7.41 3.25-9a14.8 14.8 0 0 0-3.27-12.93 17.75 17.75 0 0 0-14.6-6.16 12.37 12.37 0 0 0-6.78 2.39 9.45 9.45 0 0 0-3.33 5.33"/><path d="M241 228.76a1.55 1.55 0 0 1-.48-.11 6.63 6.63 0 0 1-1.28-.54 9.08 9.08 0 0 1-3.64-3.56 8.64 8.64 0 0 1-.64-7.45 9.66 9.66 0 0 1 2.55-3.74 9.12 9.12 0 0 1 4.32-2.19 3.71 3.71 0 0 0 2-.95 3.38 3.38 0 0 0 .77-2c.12-1.47-.46-2.9-.62-4.34a6.39 6.39 0 0 1 .81-4 6.46 6.46 0 0 1 2.59-2.46c1-.51 1.89-.84 2.66-1.18a9.94 9.94 0 0 0 1.92-1 6.8 6.8 0 0 0 1.31-1.28 1.69 1.69 0 0 1-.23.43 4.09 4.09 0 0 1-1 1 9.75 9.75 0 0 1-1.92 1.11l-2.6 1.23a6.07 6.07 0 0 0-2.39 2.36 5.89 5.89 0 0 0-.72 3.74c.16 1.37.77 2.8.66 4.44a3.83 3.83 0 0 1-.9 2.32 4.23 4.23 0 0 1-2.27 1.11 9 9 0 0 0-6.55 5.59 8.37 8.37 0 0 0 .51 7.1 9.34 9.34 0 0 0 3.42 3.57c1.06.58 1.72.75 1.72.8zm45.27 9.16l1.62-1.14a9.57 9.57 0 0 0 3.42-4 5.54 5.54 0 0 0 .2-3.55 3.75 3.75 0 0 0-1-1.67 8.52 8.52 0 0 0-1.78-1.2 4.83 4.83 0 0 1-2.54-4.05c-.07-1.81 1.05-3.31 1.45-4.92a6.73 6.73 0 0 0-.75-4.74 12.12 12.12 0 0 0-3-3.55c-2.29-1.92-4.68-3.33-6.33-5a10.62 10.62 0 0 1-2.94-4.57 6.43 6.43 0 0 1-.24-1.47 1.76 1.76 0 0 1 0-.52 12.66 12.66 0 0 0 .4 1.93 10.91 10.91 0 0 0 3 4.37c1.64 1.57 4 2.92 6.38 4.87a12.58 12.58 0 0 1 3.11 3.67 7.18 7.18 0 0 1 .81 5.11c-.46 1.75-1.53 3.19-1.45 4.78A4.34 4.34 0 0 0 289 226a9.12 9.12 0 0 1 1.87 1.28 4.27 4.27 0 0 1 1.08 1.88 6 6 0 0 1-.26 3.8 7.74 7.74 0 0 1-1.81 2.57A13.2 13.2 0 0 1 288 237l-1.27.75a1.88 1.88 0 0 1-.46.17zm-36.16-32.22a5.82 5.82 0 0 0 1.94-3.12 17.11 17.11 0 0 0 .45-3.71c0-.36 0-.83-.38-.92s-.62.25-.78.56a12 12 0 0 0-1.23 7.55l.22-.21"/></g><path d="M232.66 436.46l-.19-9 16.84-.46.41 13.15-1 .1c-4.64.38-23.62 1.62-26.75.76-3.53-.95 10.69-4.55 10.69-4.55z" class="D"/><g opacity=".5" class="C"><path d="M243.61,440.2a5.83,5.83,0,0,1,2.06-3.65,5.62,5.62,0,0,1,3.9-1.33l.13,4.7Z"/></g><g opacity=".4" class="C"><path d="M225.72 438.47s-5 1.58-4.33 2.39 19.87.28 28.33-.7v-.37l-22.43.81s-.59-2.12-1.57-2.13z"/></g><g class="B"><path d="M250 439.77h-.29l-.83.07-3.06.22c-2.58.16-6.15.34-10.1.46a269.42 269.42 0 0 1-10.11.11h-3.06-.83-.29.29.83 3.06c2.59 0 6.16-.07 10.11-.18l10.1-.39 3.06-.16h.83z"/><path d="M227.28 440.86a7.32 7.32 0 0 0-.62-1.45 6.37 6.37 0 0 0-1.07-1.14 2.71 2.71 0 0 1 1.69 2.59zm4.9-2.66c-.05 0-.3-.25-.55-.63s-.43-.71-.38-.75.29.26.55.64a2 2 0 0 1 .38.74zm1.34-.76c0 .05-.31-.12-.6-.38s-.51-.49-.48-.53.31.12.61.38.51.49.47.53zm.82-1.61a1.93 1.93 0 0 1-.88.14 2.25 2.25 0 0 1-.88-.07 3.73 3.73 0 0 1 1.76-.07zm.26-1.13a1.64 1.64 0 0 1-1 .31 1.79 1.79 0 0 1-1-.1 5.41 5.41 0 0 1 1-.1 6.65 6.65 0 0 1 1-.11z"/><path d="M231.56 436.75a3.3 3.3 0 0 1-1.08 0 6.64 6.64 0 0 1-1.16-.22 3.39 3.39 0 0 1-.66-.25.62.62 0 0 1-.28-.33.43.43 0 0 1 .15-.44 2 2 0 0 1 2.47.49 1.94 1.94 0 0 1 .37.71.68.68 0 0 1 0 .3 3.11 3.11 0 0 0-.52-.91 1.92 1.92 0 0 0-.94-.58 1.71 1.71 0 0 0-1.29.12c-.16.14-.09.34.1.45a3.32 3.32 0 0 0 .62.24 7.35 7.35 0 0 0 1.12.26c.69.14 1.1.12 1.1.16z"/><path d="M231.29 436.81a1 1 0 0 1-.15-.75 1.85 1.85 0 0 1 .27-.8 1.09 1.09 0 0 1 .89-.57.43.43 0 0 1 .35.49 1.42 1.42 0 0 1-.17.49 3.34 3.34 0 0 1-.5.66 1.52 1.52 0 0 1-.6.46s.21-.2.5-.55a4.73 4.73 0 0 0 .43-.66c.14-.24.23-.65 0-.69s-.54.26-.7.48a1.91 1.91 0 0 0-.29.71 3.13 3.13 0 0 0-.03.73zm18.19-1.64s-.48 0-1.24.08a5.26 5.26 0 0 0-4.32 3.64c-.23.73-.25 1.21-.28 1.21s0-.12 0-.34a4 4 0 0 1 .16-.91 5.14 5.14 0 0 1 1.63-2.56 5.22 5.22 0 0 1 2.8-1.18 4.05 4.05 0 0 1 .93 0 1.07 1.07 0 0 1 .32.06zm-1.94-6.96a27.27 27.27 0 0 1 .24 3.46 28.07 28.07 0 0 1 0 3.46 29.38 29.38 0 0 1-.24-3.45 30.89 30.89 0 0 1 0-3.47zm-6.09 10.4a8.77 8.77 0 0 1-2.45.31 9.63 9.63 0 0 1-2.47-.12c0-.06 1.11 0 2.46-.08l2.46-.11zm3.3-.09l-.19.49c-.11.26-.16.48-.22.48s-.09-.27 0-.56.37-.45.41-.41zm1.25-1.58s-.06.21-.23.39-.34.3-.38.26.06-.21.23-.4.29-.29.38-.25zm1.71-.76c0 .06-.23.06-.48.15s-.42.24-.46.2.09-.28.39-.39.57-.01.55.04zm1.29-.37c0 .05-.07.14-.21.2s-.27.06-.29 0 .07-.14.21-.2.29-.05.29 0z"/></g><path d="M192 388.35l3.9-8.1 15.23 7.22-5.59 11.91-1-.39c-4.31-1.75-21.8-9.24-24.2-11.42-2.66-2.43 11.66.78 11.66.78z" class="D"/><g opacity=".5" class="C"><path d="M200.07,396.64a5.86,5.86,0,0,1,3.48-2.32,5.68,5.68,0,0,1,4.08.58l-2,4.26Z"/></g><g opacity=".4" class="C"><path d="M184.89 387s-5.15-.84-4.94.17 17.59 9.24 25.58 12.2l.14-.35-20.36-9.43s.45-2.13-.42-2.59z"/></g><g class="B"><path d="M205.91 399.13a.93.93 0 0 1-.27-.09l-.78-.31-2.86-1.19c-2.38-1-5.64-2.48-9.22-4.17s-6.77-3.28-9.06-4.47l-2.72-1.42-.73-.4-.25-.16.27.12.75.36 2.74 1.37 9.09 4.42 9.19 4.21 2.79 1.25.76.35z"/><path d="M185.2 389.84a6.94 6.94 0 0 0 .11-1.56 7.6 7.6 0 0 0-.44-1.51 2.34 2.34 0 0 1 .64 1.49 2.22 2.22 0 0 1-.31 1.58zm5.57-.15c-.06 0-.15-.36-.2-.81s-.06-.83 0-.84a2 2 0 0 1 .2.81c.06.46.06.83 0 .84zm1.54-.07c-.05 0-.21-.25-.37-.61s-.23-.67-.17-.69.21.25.36.61.23.67.18.69zm1.46-1.07a2 2 0 0 1-.84-.27 2 2 0 0 1-.76-.46 2 2 0 0 1 .84.27c.45.21.79.41.76.46zm.75-.88a2.56 2.56 0 0 1-1.87-.72 279.37 279.37 0 0 0 1.87.72z"/><path d="M190.88 388.12a3.13 3.13 0 0 1-1-.47 6.57 6.57 0 0 1-.94-.72 4.23 4.23 0 0 1-.48-.53.58.58 0 0 1-.09-.42.4.4 0 0 1 .33-.32 2 2 0 0 1 2 2.38c0 .18-.09.28-.1.27a2.9 2.9 0 0 0-.05-1 2 2 0 0 0-.58-.94 1.64 1.64 0 0 0-1.2-.47c-.21 0-.24.25-.11.43a3.43 3.43 0 0 0 .43.5 7.55 7.55 0 0 0 .89.74l.9.55z"/><path d="M190.61 388.05a1.06 1.06 0 0 1 .2-.74 1.92 1.92 0 0 1 .61-.59 1.09 1.09 0 0 1 1.05-.11.44.44 0 0 1 .09.6 1.21 1.21 0 0 1-.37.35 3.31 3.31 0 0 1-.75.38 1.66 1.66 0 0 1-.74.13s.27-.08.69-.27a3.81 3.81 0 0 0 .69-.39c.23-.14.5-.47.27-.63a1 1 0 0 0-.84.11 2.08 2.08 0 0 0-.58.5 3.18 3.18 0 0 0-.32.66zm16.96 6.77s-.41-.25-1.14-.49a5.28 5.28 0 0 0-5.49 1.29c-.55.54-.78 1-.81.95a1.05 1.05 0 0 1 .15-.31 4.59 4.59 0 0 1 .55-.74 5.14 5.14 0 0 1 5.65-1.33 4.33 4.33 0 0 1 .82.42c.19.12.28.2.27.21zm1.43-7.08a29.48 29.48 0 0 1-1.35 3.19 29.86 29.86 0 0 1-1.53 3.1 29.48 29.48 0 0 1 1.35-3.19 27.55 27.55 0 0 1 1.53-3.1zm-10.15 6.51a9.39 9.39 0 0 1-2.32-.83 10 10 0 0 1-2.15-1.23c0-.05 1 .48 2.23 1.05l2.24 1.01zm2.99 1.41c0 .06-.18.17-.39.35s-.36.36-.41.33 0-.28.28-.48.51-.25.52-.2zm1.79-.87c0 .06-.16.17-.39.25s-.44.12-.46.06.16-.16.39-.25.44-.11.46-.06zm1.91.13s-.24-.06-.5-.08-.48 0-.5 0 .2-.2.53-.16.51.2.47.24zm1.29.24s-.13.09-.28.08-.27-.07-.26-.12.13-.1.27-.09.27.07.27.13z"/></g><path d="M303 270.66l-3.58-18c-2.6-14.66-23.2-15.66-23.2-15.66l-16.22-.27s-12-1.61-19.39 6.73l-17.06 18.84 7.18 18.07 17-14a17.42 17.42 0 0 0-2.28 8.17c0 4.79 5 7 5 7l1.55 14.53-5 23.53 52.81-2.12a52.5 52.5 0 0 0-7.81-22.19l1-24.63z" class="D"/><g class="B"><path d="M280.37 250.53a4.69 4.69 0 0 1 .28 1.15l.62 3.15 2 10.4 1.86 10.44.46 3.18a4.78 4.78 0 0 1 .07 1.18 5.35 5.35 0 0 1-.27-1.15l-.62-3.15-2-10.4-1.86-10.44a73.99 73.99 0 0 1-.46-3.18 6.08 6.08 0 0 1-.08-1.18z"/><path d="M303.31 269.72a89.23 89.23 0 0 1-9.76.3 91.85 91.85 0 0 1-9.76-.23 90.92 90.92 0 0 1 9.76-.29 93.64 93.64 0 0 1 9.76.22z"/></g><path d="M305.32 286c-1-8.62-2.43-16-2.43-16h-18.7s2.32 11 1.81 13.5c-.46 2.21-36.69 3.67-46.13 3.82-.57-.42-1.38.29-2.11-.35a7.73 7.73 0 0 1-1.61-2 12.11 12.11 0 0 1-1.29-2.92 1 1 0 0 0-1.79-.41c-.38.81.05 3.5 1.84 6.1s-2.91 1.25-4.63.79-7.12-1.63-7.67-1.2c-.82.63-.31 1.64 1.42 2.06s6.84 2 6.56 3-9-1.57-9-1.57-1.78-.83-2.14.22c-.64 1.9 8.83 3.82 9.74 4 .63.12.36 1.13-.31 1s-8.66-2.67-9.33-.74c-.52 1.48 7.78 1.66 9.15 3.12s-6.28-.79-6.72.64c-.16.54 3 .78 7.6 1.43a118.39 118.39 0 0 0 14.15.5c10.61.58 48.13 1.36 56.14.79 9.32-.71 5.81-12.78 5.45-15.78z" fill="#ffbe9d"/><path d="M245.9 271.17a15 15 0 0 1 .64-2.42l.83-2.6.57-1.51c.12-.28.27-.52.34-.75a2.23 2.23 0 0 0 .1-.78 13.58 13.58 0 0 0-.25-1.66l-.3-1.57-.46-2.68a12.17 12.17 0 0 1-.3-2.49 11.64 11.64 0 0 1 .66 2.42l.57 2.65.33 1.58a11 11 0 0 1 .27 1.74 2.57 2.57 0 0 1-.13.95 7.55 7.55 0 0 1-.36.79l-.59 1.48-.93 2.54a10.13 10.13 0 0 1-.99 2.31zM267.7 203c1.44 1.86 3 4 2.69 6.33-.25 2-1.88 3.85-1.61 5.89.32 2.35 3 3.89 3.18 6.26.11 2-1.58 3.48-2.77 5a10.82 10.82 0 0 0-2.19 8 9.35 9.35 0 0 0 4.57 6.79 8.23 8.23 0 0 0 8.11-.08 11.47 11.47 0 0 0 4.47-6.27c1.12-3.22 1.42-7-.49-9.84-.78-1.14-1.91-2.12-2.16-3.48-.32-1.72.9-3.34 1.09-5.08.26-2.33-1.35-4.46-3.13-6s-3.88-2.76-5.21-4.69" class="B"/><g opacity=".3"><path d="M281 255.4c.65 10 1 19.25 1.24 29.28a7.64 7.64 0 0 0 3.76-1.18c.51-4.28-2.73-17.31-5-28.1z"/></g><path d="M256.62 250.79a4 4 0 0 1 .23-2.27c.34-1.22.87-2.11 1-2.05a6.77 6.77 0 0 1-.5 2.19 7.16 7.16 0 0 1-.73 2.13zm-10.62-.03c-.08.12-.79-.23-1.48-.89s-1.09-1.35-1-1.43.67.43 1.33 1.05 1.22 1.15 1.15 1.27zm-10.15 8.3s-.09-.09-.15-.27h.23a6.58 6.58 0 0 1 0 2.47 4.49 4.49 0 0 1-1 2.55 20.18 20.18 0 0 1 .53-2.64c.18-1 .22-1.94.28-2.37h.23c-.06.2-.08.25-.12.26zm-.45 10.38a5.25 5.25 0 0 1-2.19-.58c-1.16-.45-2.06-.92-2-1.06a5.24 5.24 0 0 1 2.2.58c1.14.45 2.04.92 1.99 1.06zm8.6-5.75c-.14 0-.12-.9.21-1.93s.79-1.77.92-1.71-.12.87-.43 1.86-.6 1.8-.7 1.78zm9-22.76c0 .14-.75.29-1.69.34s-1.7 0-1.71-.18.75-.3 1.69-.34 1.71.03 1.71.18zm1.83 19.53c-.09.1-.9-.5-1.44-1.6a2.87 2.87 0 0 1-.4-2.12c.15 0 .36.89.86 1.89s1.09 1.72.98 1.83zm17.76-4.19c.1.1-.53.9-1.48 1.72s-1.84 1.32-1.92 1.2.65-.8 1.58-1.6 1.72-1.42 1.82-1.32zm-8.78-2.76c.08.12-.47.67-1.24 1.24s-1.47.95-1.55.83.47-.67 1.24-1.24 1.46-.94 1.55-.83zm4.31-7.18a4.13 4.13 0 0 1-2.13-1.18c-1-.89-1.61-1.85-1.49-1.93s.84.69 1.83 1.53 1.86 1.45 1.79 1.58zm10.11-2.8c.08.11-.48.69-1.27 1.28s-1.5 1-1.59.88.48-.69 1.27-1.29 1.5-.99 1.59-.87zm8.44 4a6.48 6.48 0 0 1 .32-2.13c.23-1.15.38-2.1.53-2.09a3.69 3.69 0 0 1 0 2.19c-.25 1.2-.72 2.08-.85 2.03zm1.49 9.63c-.1.1-1-.57-2-1.51s-1.77-1.78-1.67-1.88 1 .56 2 1.5 1.77 1.78 1.67 1.89zm6.84-4.05c-.13-.06.13-1 .58-2s.93-1.88 1.06-1.82a4.55 4.55 0 0 1-.58 2c-.46 1.06-.94 1.88-1.06 1.82zm.35 11.57a6.25 6.25 0 0 1 1-2.33 6.47 6.47 0 0 1 1.43-2.07 6.17 6.17 0 0 1-1 2.32 6.45 6.45 0 0 1-1.43 2.08zm-6.74 1.77c-.12.09-.8-.63-1.54-1.61s-1.23-1.83-1.12-1.92.81.63 1.54 1.61 1.23 1.83 1.12 1.92zm-12.72 4.95a7.37 7.37 0 0 1 1.37-2.88 7.25 7.25 0 0 1 2.12-2.37 15.31 15.31 0 0 1-1.68 2.66 15.6 15.6 0 0 1-1.81 2.59zm-9.14-.92a7.21 7.21 0 0 1-1.41-2.31 7.32 7.32 0 0 1-.95-2.54 14.27 14.27 0 0 1 2.36 4.85zm-11.51-2.68a9.05 9.05 0 0 1-2.1 2.17 8.9 8.9 0 0 1-2.43 1.79c-.1-.11.84-1.08 2.09-2.18a8.78 8.78 0 0 1 2.44-1.78zm4.37 12.5c-.12.09-.94-.84-2-1.92l-1.91-2A5.91 5.91 0 0 1 258 278a5.79 5.79 0 0 1 1.61 2.3zm8.06.38a5 5 0 0 1 .89-2.55c.75-1.3 1.66-2.14 1.76-2a12.48 12.48 0 0 1-1.32 2.27 12.8 12.8 0 0 1-1.33 2.28zM279 282a8.9 8.9 0 0 1-2.47-1.73 9.14 9.14 0 0 1-2.15-2.13 8.92 8.92 0 0 1 2.48 1.73A9.09 9.09 0 0 1 279 282zm-1-29.78a4.18 4.18 0 0 1-2.11-1c-1.06-.77-1.71-1.62-1.61-1.72s.9.56 1.92 1.3l1.8 1.42zm-16.37 51.25c.06.14-.75.57-1.65 1.24s-1.57 1.3-1.68 1.21.4-.92 1.37-1.63 1.92-.95 1.96-.82zm12.1 4.94a10.93 10.93 0 0 1-1.65-4.47 11.08 11.08 0 0 1 1.65 4.47zm12.2-4.32c.11.1-.52.92-1.39 1.83s-1.66 1.57-1.76 1.47.52-.92 1.39-1.83 1.66-1.56 1.76-1.47zm9.07 6.58c-.11.11-.92-.53-2.12-.76s-2.19 0-2.24-.13a2.65 2.65 0 0 1 2.35-.38c1.32.27 2.08 1.19 2.01 1.27z" fill="#fafafa"/><g class="E"><path d="M299.93 315.12s-69.06-14.47-75.75-11.3-37.52 79.38-37.52 79.38l24.83 10.68 26.71-64.76S286.55 346.78 295 345s4.93-29.88 4.93-29.88z"/><path d="M269.06,319.18c-1.05.35-41,16.78-43.82,22.05s4.1,92.94,4.1,92.94h22.72l-1.4-77.91L295,345Z"/></g><g class="B"><path d="M295.23 345.21a3.88 3.88 0 0 1-.65-.08l-1.86-.33-6.81-1.37c-5.73-1.21-13.63-3-22.23-5.51a241.62 241.62 0 0 1-12-3.8c-3.64-1.26-6.93-2.52-9.62-3.67-1.36-.55-2.57-1.1-3.63-1.58s-2-.89-2.71-1.27l-1.68-.85a3.14 3.14 0 0 1-.58-.33 4.18 4.18 0 0 1 .62.24l1.73.76c.74.34 1.66.74 2.73 1.19s2.29 1 3.65 1.5c2.71 1.11 6 2.28 9.65 3.56s7.72 2.51 12 3.75c8.59 2.47 16.46 4.35 22.17 5.65l6.77 1.53 1.84.42a3.14 3.14 0 0 1 .61.19zm-69.98 16.16a6.92 6.92 0 0 1-.21-1.31l-.38-3.6-.49-5.33a23.93 23.93 0 0 1 0-6.61 10.24 10.24 0 0 1 3.31-5.71 17.44 17.44 0 0 1 4.55-2.93 35.21 35.21 0 0 1 3.37-1.33 6.69 6.69 0 0 1 1.28-.37c0 .09-1.76.72-4.49 2a17.49 17.49 0 0 0-4.38 2.94 10 10 0 0 0-3.13 5.46 25.05 25.05 0 0 0 0 6.47l.39 5.34.21 3.61a6.19 6.19 0 0 1-.03 1.37zm19.93-7.53a16.78 16.78 0 0 1 5.38 2.37 17 17 0 0 1-5.38-2.37z"/><path d="M247.19 351.44A30.13 30.13 0 0 1 249 354c1 1.37 2.07 2.32 2 2.44a5.87 5.87 0 0 1-2.39-2.13 5.75 5.75 0 0 1-1.42-2.87z"/><path d="M255.91 355s-.07.19-.35.36a2.67 2.67 0 0 1-1.32.31 15.4 15.4 0 0 0-1.89.05 1.33 1.33 0 0 0-1.13 1.44 36.22 36.22 0 0 1-.28 6.07 35.23 35.23 0 0 1-.24-6.1 2.22 2.22 0 0 1 .43-1.29 1.83 1.83 0 0 1 1.14-.6 11.91 11.91 0 0 1 2 .06 3.31 3.31 0 0 0 1.64-.3z"/></g><path d="M250.46 303.37l47.07 3.78-2.01-5.27-44.6-.64-.46 2.13z" opacity=".3"/><g class="B"><path d="M377.86 293.04H100.37v7.4h14.84l-7.65 140.74 4.22.23 7.67-140.97h243.28l6.52 140.86h4.24l-6.53-140.86h10.9v-7.4z"/><path d="M181.3 249.28l15.39 44.96h69.68l-.52-2.31-28.17-.88-12.98-41.8-43.4.03z"/></g><path d="M212.18 270.39c.46 1.85-.33 3.65-1.76 4s-3-.8-3.43-2.65.33-3.64 1.76-4 2.97.81 3.43 2.65z" class="C"/><defs ><path id="B" d="M40.94,363.88C40,372.8,44,383.3,48.58,391a42.56,42.56,0,0,0,20,17.34c.93.39,2.09.71,2.88.08a2.91,2.91,0,0,0,.73-2.29,43.83,43.83,0,0,0-31.23-42.26"/></defs></svg>